<svg width="386" height="72" viewBox="0 0 386 72" fill="none" xmlns="http://www.w3.org/2000/svg">
<g filter="url(#filter0_ddii)">
<path d="M52.409 36.088C52.409 39.5227 51.865 42.648 50.777 45.464C49.689 48.28 48.153 50.6907 46.169 52.696C44.185 54.7013 41.7957 56.2587 39.001 57.368C36.2277 58.456 33.1557 59 29.785 59H12.665V13.144H29.785C33.1557 13.144 36.2277 13.6987 39.001 14.808C41.7957 15.896 44.185 17.4533 46.169 19.48C48.153 21.4853 49.689 23.896 50.777 26.712C51.865 29.528 52.409 32.6533 52.409 36.088ZM46.041 36.088C46.041 33.272 45.657 30.7547 44.889 28.536C44.121 26.3173 43.033 24.44 41.625 22.904C40.217 21.368 38.5103 20.1947 36.505 19.384C34.4997 18.5733 32.2597 18.168 29.785 18.168H18.873V53.976H29.785C32.2597 53.976 34.4997 53.5707 36.505 52.76C38.5103 51.9493 40.217 50.7867 41.625 49.272C43.033 47.736 44.121 45.8587 44.889 43.64C45.657 41.4213 46.041 38.904 46.041 36.088ZM84.4545 41.976L77.2545 23.32C77.0412 22.7653 76.8172 22.1253 76.5825 21.4C76.3478 20.6533 76.1238 19.864 75.9105 19.032C75.4625 20.76 75.0038 22.2 74.5345 23.352L67.3345 41.976H84.4545ZM97.3825 59H92.5825C92.0278 59 91.5798 58.8613 91.2385 58.584C90.8972 58.3067 90.6412 57.9547 90.4705 57.528L86.1825 46.456H65.6065L61.3185 57.528C61.1905 57.912 60.9452 58.2533 60.5825 58.552C60.2198 58.8507 59.7718 59 59.2385 59H54.4385L72.7745 13.144H79.0465L97.3825 59ZM116.119 35.352C117.911 35.352 119.49 35.1387 120.855 34.712C122.242 34.264 123.394 33.6453 124.311 32.856C125.25 32.0453 125.954 31.0853 126.423 29.976C126.892 28.8667 127.127 27.64 127.127 26.296C127.127 23.5653 126.231 21.5067 124.439 20.12C122.647 18.7333 119.959 18.04 116.375 18.04H109.591V35.352H116.119ZM137.303 59H131.799C130.668 59 129.836 58.5627 129.303 57.688L117.399 41.304C117.036 40.792 116.642 40.4293 116.215 40.216C115.81 39.9813 115.17 39.864 114.295 39.864H109.591V59H103.415V13.144H116.375C119.276 13.144 121.783 13.4427 123.895 14.04C126.007 14.616 127.746 15.4587 129.111 16.568C130.498 17.6773 131.522 19.0213 132.183 20.6C132.844 22.1573 133.175 23.9067 133.175 25.848C133.175 27.4693 132.919 28.984 132.407 30.392C131.895 31.8 131.148 33.0693 130.167 34.2C129.207 35.3093 128.023 36.2587 126.615 37.048C125.228 37.8373 123.65 38.4347 121.879 38.84C122.668 39.288 123.351 39.9387 123.927 40.792L137.303 59ZM149.716 33.24H152.052C152.863 33.24 153.513 33.144 154.004 32.952C154.495 32.7387 154.943 32.3867 155.348 31.896L170.612 14.616C171.039 14.0613 171.487 13.6773 171.956 13.464C172.425 13.2507 173.001 13.144 173.684 13.144H178.932L161.46 32.888C161.033 33.4 160.617 33.8267 160.212 34.168C159.828 34.488 159.412 34.7547 158.964 34.968C159.54 35.16 160.063 35.448 160.532 35.832C161.001 36.1947 161.46 36.6747 161.908 37.272L180.148 59H174.772C174.367 59 174.015 58.9787 173.716 58.936C173.439 58.872 173.193 58.7867 172.98 58.68C172.767 58.552 172.575 58.4133 172.404 58.264C172.255 58.0933 172.105 57.9013 171.956 57.688L156.148 39.48C155.721 38.9467 155.263 38.5733 154.772 38.36C154.281 38.1253 153.535 38.008 152.532 38.008H149.716V59H143.54V13.144H149.716V33.24ZM233.627 13.144V59H228.187V25.304C228.187 24.856 228.198 24.376 228.219 23.864C228.262 23.352 228.304 22.8293 228.347 22.296L212.603 50.968C212.112 51.928 211.366 52.408 210.363 52.408H209.467C208.464 52.408 207.718 51.928 207.227 50.968L191.163 22.168C191.291 23.2987 191.355 24.344 191.355 25.304V59H185.915V13.144H190.491C191.046 13.144 191.472 13.1973 191.771 13.304C192.07 13.4107 192.358 13.7093 192.635 14.2L208.475 42.424C208.731 42.936 208.976 43.4693 209.211 44.024C209.467 44.5787 209.702 45.144 209.915 45.72C210.128 45.144 210.352 44.5787 210.587 44.024C210.822 43.448 211.078 42.904 211.355 42.392L226.907 14.2C227.163 13.7093 227.44 13.4107 227.739 13.304C228.059 13.1973 228.496 13.144 229.051 13.144H233.627ZM287.72 36.088C287.72 39.5227 287.176 42.68 286.088 45.56C285 48.4187 283.464 50.8827 281.48 52.952C279.496 55.0213 277.107 56.632 274.312 57.784C271.539 58.9147 268.467 59.48 265.096 59.48C261.726 59.48 258.654 58.9147 255.88 57.784C253.107 56.632 250.728 55.0213 248.744 52.952C246.76 50.8827 245.224 48.4187 244.136 45.56C243.048 42.68 242.504 39.5227 242.504 36.088C242.504 32.6533 243.048 29.5067 244.136 26.648C245.224 23.768 246.76 21.2933 248.744 19.224C250.728 17.1333 253.107 15.512 255.88 14.36C258.654 13.208 261.726 12.632 265.096 12.632C268.467 12.632 271.539 13.208 274.312 14.36C277.107 15.512 279.496 17.1333 281.48 19.224C283.464 21.2933 285 23.768 286.088 26.648C287.176 29.5067 287.72 32.6533 287.72 36.088ZM281.352 36.088C281.352 33.272 280.968 30.744 280.2 28.504C279.432 26.264 278.344 24.376 276.936 22.84C275.528 21.2827 273.822 20.088 271.816 19.256C269.811 18.424 267.571 18.008 265.096 18.008C262.643 18.008 260.414 18.424 258.408 19.256C256.403 20.088 254.686 21.2827 253.256 22.84C251.848 24.376 250.76 26.264 249.992 28.504C249.224 30.744 248.84 33.272 248.84 36.088C248.84 38.904 249.224 41.432 249.992 43.672C250.76 45.8907 251.848 47.7787 253.256 49.336C254.686 50.872 256.403 52.056 258.408 52.888C260.414 53.6987 262.643 54.104 265.096 54.104C267.571 54.104 269.811 53.6987 271.816 52.888C273.822 52.056 275.528 50.872 276.936 49.336C278.344 47.7787 279.432 45.8907 280.2 43.672C280.968 41.432 281.352 38.904 281.352 36.088ZM336.346 36.088C336.346 39.5227 335.802 42.648 334.714 45.464C333.626 48.28 332.09 50.6907 330.106 52.696C328.122 54.7013 325.733 56.2587 322.938 57.368C320.165 58.456 317.093 59 313.722 59H296.602V13.144H313.722C317.093 13.144 320.165 13.6987 322.938 14.808C325.733 15.896 328.122 17.4533 330.106 19.48C332.09 21.4853 333.626 23.896 334.714 26.712C335.802 29.528 336.346 32.6533 336.346 36.088ZM329.978 36.088C329.978 33.272 329.594 30.7547 328.826 28.536C328.058 26.3173 326.97 24.44 325.562 22.904C324.154 21.368 322.448 20.1947 320.442 19.384C318.437 18.5733 316.197 18.168 313.722 18.168H302.81V53.976H313.722C316.197 53.976 318.437 53.5707 320.442 52.76C322.448 51.9493 324.154 50.7867 325.562 49.272C326.97 47.736 328.058 45.8587 328.826 43.64C329.594 41.4213 329.978 38.904 329.978 36.088ZM373.578 53.944L373.546 59H345.29V13.144H373.546V18.2H351.498V33.432H369.354V38.296H351.498V53.944H373.578Z" fill="#2A2D37"/>
</g>
<defs>
<filter id="filter0_ddii" x="0.665039" y="0.631989" width="384.913" height="70.848" filterUnits="userSpaceOnUse" color-interpolation-filters="sRGB">
<feFlood flood-opacity="0" result="BackgroundImageFix"/>
<feColorMatrix in="SourceAlpha" type="matrix" values="0 0 0 0 0 0 0 0 0 0 0 0 0 0 0 0 0 0 127 0"/>
<feOffset dx="-4" dy="-4"/>
<feGaussianBlur stdDeviation="4"/>
<feColorMatrix type="matrix" values="0 0 0 0 1 0 0 0 0 1 0 0 0 0 1 0 0 0 0.2 0"/>
<feBlend mode="normal" in2="BackgroundImageFix" result="effect1_dropShadow"/>
<feColorMatrix in="SourceAlpha" type="matrix" values="0 0 0 0 0 0 0 0 0 0 0 0 0 0 0 0 0 0 127 0"/>
<feOffset dx="4" dy="4"/>
<feGaussianBlur stdDeviation="4"/>
<feColorMatrix type="matrix" values="0 0 0 0 0 0 0 0 0 0 0 0 0 0 0 0 0 0 0.5 0"/>
<feBlend mode="normal" in2="effect1_dropShadow" result="effect2_dropShadow"/>
<feBlend mode="normal" in="SourceGraphic" in2="effect2_dropShadow" result="shape"/>
<feColorMatrix in="SourceAlpha" type="matrix" values="0 0 0 0 0 0 0 0 0 0 0 0 0 0 0 0 0 0 127 0" result="hardAlpha"/>
<feOffset dx="1" dy="1"/>
<feGaussianBlur stdDeviation="0.5"/>
<feComposite in2="hardAlpha" operator="arithmetic" k2="-1" k3="1"/>
<feColorMatrix type="matrix" values="0 0 0 0 0.305882 0 0 0 0 0.313726 0 0 0 0 0.345098 0 0 0 1 0"/>
<feBlend mode="normal" in2="shape" result="effect3_innerShadow"/>
<feColorMatrix in="SourceAlpha" type="matrix" values="0 0 0 0 0 0 0 0 0 0 0 0 0 0 0 0 0 0 127 0" result="hardAlpha"/>
<feOffset dx="-1" dy="-1"/>
<feGaussianBlur stdDeviation="0.5"/>
<feComposite in2="hardAlpha" operator="arithmetic" k2="-1" k3="1"/>
<feColorMatrix type="matrix" values="0 0 0 0 0.0941176 0 0 0 0 0.101961 0 0 0 0 0.121569 0 0 0 1 0"/>
<feBlend mode="normal" in2="effect3_innerShadow" result="effect4_innerShadow"/>
</filter>
</defs>
</svg>
