<svg width="412" height="72" viewBox="0 0 412 72" fill="none" xmlns="http://www.w3.org/2000/svg">
<g filter="url(#filter0_ddiiii)">
<path d="M38.9622 53.784V59H12.9462V13.144H19.1222V53.784H38.9622ZM52.0292 59H45.8212V13.144H52.0292V59ZM101.007 36.952V54.552C98.7027 56.216 96.2387 57.464 93.6147 58.296C91.0121 59.1067 88.1534 59.512 85.0387 59.512C81.3481 59.512 78.0201 58.9467 75.0547 57.816C72.0894 56.664 69.5507 55.064 67.4387 53.016C65.3481 50.9467 63.7374 48.472 62.6067 45.592C61.4761 42.712 60.9107 39.544 60.9107 36.088C60.9107 32.5893 61.4547 29.4 62.5427 26.52C63.6521 23.64 65.2201 21.176 67.2467 19.128C69.2734 17.0587 71.7374 15.4587 74.6387 14.328C77.5401 13.1973 80.7827 12.632 84.3667 12.632C86.1801 12.632 87.8654 12.7707 89.4227 13.048C90.9801 13.304 92.4201 13.688 93.7427 14.2C95.0654 14.6907 96.2921 15.2987 97.4227 16.024C98.5534 16.728 99.6094 17.528 100.591 18.424L98.8307 21.24C98.5534 21.6667 98.1907 21.944 97.7427 22.072C97.3161 22.1787 96.8361 22.072 96.3027 21.752C95.7907 21.4533 95.2041 21.0907 94.5427 20.664C93.8814 20.2373 93.0707 19.832 92.1107 19.448C91.1721 19.0427 90.0521 18.7013 88.7507 18.424C87.4707 18.1467 85.9454 18.008 84.1747 18.008C81.5934 18.008 79.2574 18.4347 77.1667 19.288C75.0761 20.12 73.2947 21.3253 71.8227 22.904C70.3507 24.4613 69.2201 26.36 68.4307 28.6C67.6414 30.8187 67.2467 33.3147 67.2467 36.088C67.2467 38.968 67.6521 41.5493 68.4627 43.832C69.2947 46.0933 70.4681 48.024 71.9827 49.624C73.5187 51.2027 75.3747 52.408 77.5507 53.24C79.7267 54.072 82.1694 54.488 84.8787 54.488C87.0121 54.488 88.9001 54.2533 90.5427 53.784C92.2067 53.2933 93.8281 52.6213 95.4067 51.768V41.688H88.2707C87.8654 41.688 87.5347 41.5707 87.2787 41.336C87.0441 41.1013 86.9267 40.8133 86.9267 40.472V36.952H101.007ZM147.661 13.144V59H141.453V38.136H116.717V59H110.509V13.144H116.717V33.592H141.453V13.144H147.661ZM190.392 18.36H175.544V59H169.368V18.36H154.488V13.144H190.392V18.36ZM259.346 13.144V59H253.906V25.304C253.906 24.856 253.916 24.376 253.938 23.864C253.98 23.352 254.023 22.8293 254.066 22.296L238.322 50.968C237.831 51.928 237.084 52.408 236.082 52.408H235.186C234.183 52.408 233.436 51.928 232.946 50.968L216.882 22.168C217.01 23.2987 217.074 24.344 217.074 25.304V59H211.634V13.144H216.21C216.764 13.144 217.191 13.1973 217.49 13.304C217.788 13.4107 218.076 13.7093 218.354 14.2L234.194 42.424C234.45 42.936 234.695 43.4693 234.93 44.024C235.186 44.5787 235.42 45.144 235.634 45.72C235.847 45.144 236.071 44.5787 236.306 44.024C236.54 43.448 236.796 42.904 237.074 42.392L252.626 14.2C252.882 13.7093 253.159 13.4107 253.458 13.304C253.778 13.1973 254.215 13.144 254.77 13.144H259.346ZM313.439 36.088C313.439 39.5227 312.895 42.68 311.807 45.56C310.719 48.4187 309.183 50.8827 307.199 52.952C305.215 55.0213 302.826 56.632 300.031 57.784C297.258 58.9147 294.186 59.48 290.815 59.48C287.445 59.48 284.373 58.9147 281.599 57.784C278.826 56.632 276.447 55.0213 274.463 52.952C272.479 50.8827 270.943 48.4187 269.855 45.56C268.767 42.68 268.223 39.5227 268.223 36.088C268.223 32.6533 268.767 29.5067 269.855 26.648C270.943 23.768 272.479 21.2933 274.463 19.224C276.447 17.1333 278.826 15.512 281.599 14.36C284.373 13.208 287.445 12.632 290.815 12.632C294.186 12.632 297.258 13.208 300.031 14.36C302.826 15.512 305.215 17.1333 307.199 19.224C309.183 21.2933 310.719 23.768 311.807 26.648C312.895 29.5067 313.439 32.6533 313.439 36.088ZM307.071 36.088C307.071 33.272 306.687 30.744 305.919 28.504C305.151 26.264 304.063 24.376 302.655 22.84C301.247 21.2827 299.541 20.088 297.535 19.256C295.53 18.424 293.29 18.008 290.815 18.008C288.362 18.008 286.133 18.424 284.127 19.256C282.122 20.088 280.405 21.2827 278.975 22.84C277.567 24.376 276.479 26.264 275.711 28.504C274.943 30.744 274.559 33.272 274.559 36.088C274.559 38.904 274.943 41.432 275.711 43.672C276.479 45.8907 277.567 47.7787 278.975 49.336C280.405 50.872 282.122 52.056 284.127 52.888C286.133 53.6987 288.362 54.104 290.815 54.104C293.29 54.104 295.53 53.6987 297.535 52.888C299.541 52.056 301.247 50.872 302.655 49.336C304.063 47.7787 305.151 45.8907 305.919 43.672C306.687 41.432 307.071 38.904 307.071 36.088ZM362.065 36.088C362.065 39.5227 361.521 42.648 360.433 45.464C359.345 48.28 357.809 50.6907 355.825 52.696C353.841 54.7013 351.452 56.2587 348.657 57.368C345.884 58.456 342.812 59 339.441 59H322.321V13.144H339.441C342.812 13.144 345.884 13.6987 348.657 14.808C351.452 15.896 353.841 17.4533 355.825 19.48C357.809 21.4853 359.345 23.896 360.433 26.712C361.521 29.528 362.065 32.6533 362.065 36.088ZM355.697 36.088C355.697 33.272 355.313 30.7547 354.545 28.536C353.777 26.3173 352.689 24.44 351.281 22.904C349.873 21.368 348.167 20.1947 346.161 19.384C344.156 18.5733 341.916 18.168 339.441 18.168H328.529V53.976H339.441C341.916 53.976 344.156 53.5707 346.161 52.76C348.167 51.9493 349.873 50.7867 351.281 49.272C352.689 47.736 353.777 45.8587 354.545 43.64C355.313 41.4213 355.697 38.904 355.697 36.088ZM399.297 53.944L399.265 59H371.009V13.144H399.265V18.2H377.217V33.432H395.073V38.296H377.217V53.944H399.297Z" fill="#EEEEEE"/>
</g>
<defs>
<filter id="filter0_ddiiii" x="0.946289" y="0.631989" width="410.35" height="70.88" filterUnits="userSpaceOnUse" color-interpolation-filters="sRGB">
<feFlood flood-opacity="0" result="BackgroundImageFix"/>
<feColorMatrix in="SourceAlpha" type="matrix" values="0 0 0 0 0 0 0 0 0 0 0 0 0 0 0 0 0 0 127 0"/>
<feOffset dx="4" dy="4"/>
<feGaussianBlur stdDeviation="4"/>
<feColorMatrix type="matrix" values="0 0 0 0 0 0 0 0 0 0 0 0 0 0 0 0 0 0 0.2 0"/>
<feBlend mode="normal" in2="BackgroundImageFix" result="effect1_dropShadow"/>
<feColorMatrix in="SourceAlpha" type="matrix" values="0 0 0 0 0 0 0 0 0 0 0 0 0 0 0 0 0 0 127 0"/>
<feOffset dx="-4" dy="-4"/>
<feGaussianBlur stdDeviation="4"/>
<feColorMatrix type="matrix" values="0 0 0 0 1 0 0 0 0 1 0 0 0 0 1 0 0 0 1 0"/>
<feBlend mode="normal" in2="effect1_dropShadow" result="effect2_dropShadow"/>
<feBlend mode="normal" in="SourceGraphic" in2="effect2_dropShadow" result="shape"/>
<feColorMatrix in="SourceAlpha" type="matrix" values="0 0 0 0 0 0 0 0 0 0 0 0 0 0 0 0 0 0 127 0" result="hardAlpha"/>
<feOffset dx="-4" dy="-4"/>
<feGaussianBlur stdDeviation="4"/>
<feComposite in2="hardAlpha" operator="arithmetic" k2="-1" k3="1"/>
<feColorMatrix type="matrix" values="0 0 0 0 1 0 0 0 0 1 0 0 0 0 1 0 0 0 1 0"/>
<feBlend mode="normal" in2="shape" result="effect3_innerShadow"/>
<feColorMatrix in="SourceAlpha" type="matrix" values="0 0 0 0 0 0 0 0 0 0 0 0 0 0 0 0 0 0 127 0" result="hardAlpha"/>
<feOffset dx="4" dy="4"/>
<feGaussianBlur stdDeviation="4"/>
<feComposite in2="hardAlpha" operator="arithmetic" k2="-1" k3="1"/>
<feColorMatrix type="matrix" values="0 0 0 0 0 0 0 0 0 0 0 0 0 0 0 0 0 0 0.2 0"/>
<feBlend mode="normal" in2="effect3_innerShadow" result="effect4_innerShadow"/>
<feColorMatrix in="SourceAlpha" type="matrix" values="0 0 0 0 0 0 0 0 0 0 0 0 0 0 0 0 0 0 127 0" result="hardAlpha"/>
<feOffset dx="1" dy="1"/>
<feGaussianBlur stdDeviation="0.5"/>
<feComposite in2="hardAlpha" operator="arithmetic" k2="-1" k3="1"/>
<feColorMatrix type="matrix" values="0 0 0 0 0.996078 0 0 0 0 0.996078 0 0 0 0 0.996078 0 0 0 1 0"/>
<feBlend mode="normal" in2="effect4_innerShadow" result="effect5_innerShadow"/>
<feColorMatrix in="SourceAlpha" type="matrix" values="0 0 0 0 0 0 0 0 0 0 0 0 0 0 0 0 0 0 127 0" result="hardAlpha"/>
<feOffset dx="-1" dy="-1"/>
<feGaussianBlur stdDeviation="0.5"/>
<feComposite in2="hardAlpha" operator="arithmetic" k2="-1" k3="1"/>
<feColorMatrix type="matrix" values="0 0 0 0 0.831373 0 0 0 0 0.831373 0 0 0 0 0.831373 0 0 0 1 0"/>
<feBlend mode="normal" in2="effect5_innerShadow" result="effect6_innerShadow"/>
</filter>
</defs>
</svg>
